<svg id="outline" xmlns="http://www.w3.org/2000/svg" viewBox="0 0 735.54 735.54"><defs><style>.cls-1{fill:#20b1a9;}</style></defs><title>userDefault</title><path class="cls-1" d="M735.54,367.77c0,203.12-164.65,367.77-367.77,367.77S0,570.89,0,367.77,164.66,0,367.77,0,735.54,164.66,735.54,367.77ZM248.19,158.64c21.45-38.81,75.39-60.79,122-60.09,50.56.77,58.39,9.66,69.45,26.81,30.47-.93,56,16.26,68.94,54s7.83,93.62-5.24,140.51c3.32,4.92,7.39,15.32,6.39,32.81-1.1,19.16-11.81,36.9-29.15,45.58-5.43,16.3-17,51.68-31.94,66.32,0,0-1.34,33.95.58,51.89,2.09,19.6,9.49,30.46,46.65,43.06,36.37,12.34,63.76,24.37,81.79,36.55C596.59,608.89,603,616.39,603,616.39A341.27,341.27,0,0,0,710,367.77c0-189-153.23-342.24-342.24-342.24S25.53,178.76,25.53,367.77a341.3,341.3,0,0,0,107,248.58s6.38-7.5,25.28-20.26c18-12.18,42.86-22.8,78.49-35.33,38.7-13.61,50.23-26.42,51.59-44.12s-.51-53-.51-53C272.45,449,258,412.81,252.53,396.51c-14-9.19-23.87-25.4-25-44.56-1-17.49,2.11-25.33,5.43-30.25C220.62,252.26,226.74,197.45,248.19,158.64Z"/></svg>